<?xml version="1.0" encoding="utf-8"?>
<!-- Generator: Adobe Illustrator 22.1.0, SVG Export Plug-In . SVG Version: 6.00 Build 0)  -->
<svg version="1.1" id="Layer_1" xmlns="http://www.w3.org/2000/svg" xmlns:xlink="http://www.w3.org/1999/xlink" x="0px" y="0px"
	 viewBox="0 0 704.4 175.5" style="enable-background:new 0 0 704.4 175.5;" xml:space="preserve">
<style type="text/css">
	.st0{fill:#FFFFFF;}
	.st1{fill:url(#SVGID_1_);}
	.st2{fill:url(#SVGID_2_);}
	.st3{fill:#4BC4D8;}
	.st4{fill:#2B3D4F;}
	.st5{fill:url(#SVGID_3_);}
	.st6{fill:url(#SVGID_4_);}
	.st7{fill:url(#SVGID_5_);}
	.st8{fill:url(#SVGID_6_);}
	.st9{fill:url(#SVGID_7_);}
	.st10{fill:url(#SVGID_8_);}
</style>
<path class="st4" d="M433.7,118.6c-5.6,9.2-13.2,10.9-21.8,10.6c-6.4-0.2-12.9,0.7-19.3-0.9c-10.5-2.6-17.7-10.5-18.3-21.2
	c-0.9-16-0.9-32,0.1-48c0.8-12.6,10.2-21.4,24-22c13.9-0.6,27.9-0.1,41.9-0.2c3.8,0,3.3,2.5,3.3,4.9l-0.1,52.3
	c0,14.1,0.2,28.3-0.2,42.4c-0.5,14.8-8.7,23.3-23.4,25.2c-0.9,0.1-1.9,0.2-2.8,0.2c-11.1,0-22.3-0.1-33.4,0.1
	c-3.4,0-4.3-1.4-4.3-4.5c-0.1-3.3,1.1-4.4,4.4-4.4c10.2,0.2,20.4,0.1,30.6,0c13.3-0.1,19.2-6,19.4-19.2
	C433.7,129.3,433.7,124.8,433.7,118.6 M433.8,76.8L433.8,76.8c0-9.1,0-18.2,0-27.3c0-2.3-0.3-4-3.2-3.9c-10.5,0.2-21-0.2-31.5,0.3
	c-9.1,0.4-15,6.3-15.2,15.3c-0.4,14.6-0.4,29.2-0.1,43.8c0.2,9.3,6.7,15.2,16.1,15.5c5.2,0.2,10.4,0.2,15.5,0
	c11.3-0.3,18-7.1,18.2-18.4C433.9,93.7,433.8,85.3,433.8,76.8L433.8,76.8z"/>
<path class="st4" d="M60.5,48l0-19.5c0-7.8,0.2-15.7,0-23.5c-0.1-3.6,0.9-5,4.7-4.9c4,0,5,1.4,5,5.2C70,46.8,69.9,88.4,70,130
	c0,3.6-0.7,5.2-4.9,5.2c-4.2,0-5.3-1.6-4.8-5.3c0.1-1.3,0-2.7,0-5.4c-6.3,9.6-14.9,10.9-24.1,10.5c-3.3-0.1-6.6,0-9.9,0
	c-15.8-0.3-25.6-9.6-26-25.5c-0.4-15.7-0.4-31.4,0.1-47.1c0.4-15.5,10.1-24.8,25.7-25.3c3.9-0.1,7.8,0,11.8,0
	C46.6,37.1,54.7,38.7,60.5,48 M60.4,85.9c0-7.5,0.2-15.1,0-22.6c-0.3-9.7-6.3-16.1-16-17.1c-6.6-0.7-13.2-0.7-19.7,0
	c-7.9,0.8-13,5.5-14.4,13.2C9.7,63.5,9.8,67.8,9.9,72C10,85.3,9,98.6,10.3,111.9c0.8,8.7,6.7,13.9,15.3,14.3
	c5.8,0.3,11.6,0.3,17.4,0c10.8-0.5,17.2-7.4,17.3-18.3C60.5,100.6,60.4,93.3,60.4,85.9"/>
<path class="st4" d="M136.8,91.3c-8.8,0-17.6,0.1-26.4-0.1c-3.1-0.1-4.1,0.9-4,4.1c0.2,4.4,0,8.8,0.1,13.2
	c0.2,11.8,6.4,18,18.1,18.1c12.2,0.1,24.5,0.2,36.8,0c3.5,0,4.6,1.1,4.6,4.6c0,3.5-1.5,4.1-4.5,4.1c-12.9-0.1-25.7,0-38.7-0.2
	c-15.8-0.2-25.5-9.8-25.8-25.6c-0.3-15.8-0.3-31.4,0.1-47.1c0.3-14.2,8.6-23.3,22.6-24.8c8.9-1,17.9-0.9,26.8,0.3
	c11.2,1.7,19.6,10.2,20.3,21.5c0.7,9.5,0.2,19.1,0.4,28.7c0,3-1.8,3.2-4,3.2L136.8,91.3z M132.5,83.5l21.7,0c2.2,0,3.6-0.4,3.5-3
	c-0.2-6.3,0.2-12.6-0.2-18.8c-0.5-9.1-6.1-14.8-15.2-15.4c-6.6-0.4-13.2-0.4-19.7-0.1c-9.9,0.6-15.5,6.5-15.9,16.3
	c-0.2,5.5,0.1,11-0.2,16.4c-0.2,3.4,0.7,4.7,4.4,4.6C118,83.3,125.3,83.5,132.5,83.5"/>
<path class="st4" d="M607.3,91.3c-8.2,0-16.3,0.3-24.5-0.1c-5-0.3-6.3,1.4-5.8,6.1c0.4,3.9,0,7.8,0.1,11.8
	c0.3,11.2,6.5,17.4,17.8,17.5c12.2,0.1,24.5,0.1,36.7,0.1c3.1,0,4.9,0.2,5,4.2c0,4.1-1.7,4.6-5.1,4.5c-12.4-0.2-24.8,0-37.2-0.1
	c-16.9-0.2-26.5-9.7-26.7-26.7c-0.2-15.2-0.1-30.5,0.1-45.7c0.2-14.4,8.6-23.8,22.8-25.2c8.9-1,17.9-0.9,26.8,0.3
	c11,1.7,19.3,10.1,20.1,21.2c0.7,9.7,0.3,19.4,0.5,29.2c0.1,3-2,3.1-4.1,3.1L607.3,91.3z M602.4,83.4l21.7,0l0.5,0
	c2.1,0.2,3.6-0.1,3.6-2.9c-0.2-6.5,0.2-12.9-0.2-19.3c-0.5-8.6-6-14.3-14.6-15c-6.6-0.5-13.2-0.5-19.7-0.2
	c-10.5,0.5-16.2,6.5-16.5,17.2c-0.2,5.5,0.1,11-0.2,16.5c-0.1,3,1.1,3.8,3.9,3.7C588,83.3,595.2,83.4,602.4,83.4"/>
<path class="st4" d="M481.8,48c5.7-9.2,13.6-11,22.2-10.8c5.5,0.1,11-0.3,16.5,0.6c11.7,1.8,20.4,10.3,20.6,22.2
	c0.5,24,0.2,48.1,0.3,72.1c0,4.3-3,2.9-5.3,3.2c-3.1,0.4-4.5-0.8-4.4-4.2c0.1-18.9,0.1-37.7,0.1-56.6c0-4.1,0.1-8.2-0.1-12.2
	c-0.5-9.6-6.1-15.3-15.7-16c-6-0.5-11.9-0.5-17.9,0.1c-10.2,1-16.3,7.4-16.4,17.7c-0.2,21.8-0.1,43.7-0.2,65.5c0,5.3-3.1,7.4-8,5.6
	c-2.3-0.8-1.5-2.8-1.5-4.4c-0.1-12.6,0-25.1,0.1-37.7l0.1-49c0-3.2-1.4-6.9,4.6-6.9c5.6,0,5.1,3.2,4.9,6.7
	C481.9,44.5,481.9,45.4,481.8,48"/>
<path class="st4" d="M211.1,135.3c-5.7,0-11.3-0.1-17,0c-3.1,0.1-4.9-0.1-5-4.1c0-4.3,2-4.5,5.2-4.4c8.8,0.1,17.6,0.1,26.4,0
	c2.4,0,4.7,0,7.1-0.2c9-0.9,13.1-5.3,13.2-14.4c0.2-12.4-2.5-16.4-13.9-20.9c-8.1-3.2-16.4-6.2-24.4-9.7
	c-11.5-5.1-16.4-12.4-13.6-28.5c1.5-8.7,7.5-13.8,16.5-15.1c12.5-1.7,25.1-0.4,37.6-0.7c3.4-0.1,2.9,2.4,3,4.6
	c0.1,2.2-0.2,3.9-3.2,3.8c-8.7-0.1-17.3-0.1-25.9,0c-2.3,0-4.7,0.1-7,0.4c-6.9,1-11,4.6-11.8,10.3c-1.3,8.6,0.8,14,7.7,17
	c9.4,4.2,19,8.2,28.7,11.6c10.6,3.7,15.3,11.2,16,21.9c1.2,20.5-6,28.2-26.5,28.3C219.8,135.3,215.4,135.3,211.1,135.3"/>
<path class="st4" d="M673.3,48.6c7.4-10.6,17.2-11.6,27.5-11.3c4,0.1,3.4,2.6,3.6,5.1c0.2,3-1.1,3.9-3.9,3.7c-2-0.2-4.1-0.1-6.1,0
	c-13.8,0.3-21.1,7.5-21.2,21.4c-0.1,20.7-0.1,41.4-0.1,62.1c0,5.3-3.1,7.4-8,5.6c-2.3-0.9-1.5-2.8-1.6-4.4c0-16.5,0.1-32.9,0.1-49.4
	c0-13.2,0.2-26.4,0-39.5c-0.1-3.6,1.1-4.7,4.6-4.6c3.3,0.1,5.6,0.4,5.1,4.6C673.2,44.1,673.2,46.3,673.3,48.6"/>
<g>
	<linearGradient id="SVGID_1_" gradientUnits="userSpaceOnUse" x1="285.7855" y1="126.8844" x2="299.2666" y2="96.17">
		<stop  offset="0" style="stop-color:#4BC4D8"/>
		<stop  offset="0.4796" style="stop-color:#497D80"/>
		<stop  offset="1" style="stop-color:#4BC4D8"/>
	</linearGradient>
	<polygon class="st1" points="298.5,147.5 298.5,70.9 288.6,70.9 288.7,147.5 	"/>
</g>
<g>
	
		<linearGradient id="SVGID_2_" gradientUnits="userSpaceOnUse" x1="4639.4429" y1="126.9013" x2="4652.9307" y2="96.1713" gradientTransform="matrix(-1 0 0 1 4975.2183 0)">
		<stop  offset="0" style="stop-color:#4BC4D8"/>
		<stop  offset="0.4796" style="stop-color:#497D80"/>
		<stop  offset="1" style="stop-color:#4BC4D8"/>
	</linearGradient>
	<polygon class="st2" points="323.1,147.5 323,70.9 332.9,70.9 333,147.5 	"/>
</g>
<path class="st3" d="M323.1,137.5l0,15.3c0,2.4-1.3,4.6-3.3,5.9l-8.9,5.3l-9-5.3c-2.1-1.2-3.4-3.5-3.4-5.9l0-15.3h-9.8l0,18.7
	c0,3.8,2,7.4,5.3,9.3l16.8,10l16.9-10.1c3.3-2,5.3-5.5,5.3-9.3l0-18.6H323.1z M332.9,80.9l0-21.2c0-10.8,8.7-19.5,19.5-19.5h0
	l0,46.5c0,3.1-1.6,5.9-4.3,7.5L314,114.6c-2,1.2-4.6,1.2-6.7,0l-34.2-20.4c-2.6-1.6-4.3-4.4-4.3-7.5l0-46.5h0
	c10.9,0,19.7,8.8,19.7,19.7l0,21l9.9,0l0-21c0-16.4-13.3-29.6-29.6-29.6h0H259v9.9h0l0,47.5c0,6,3.2,11.6,8.3,14.6l40.1,23.8
	c2,1.2,4.6,1.2,6.6,0l39.9-23.8c5.1-3.1,8.3-8.6,8.3-14.6l0-47.5h0v-9.9h0h-9.7c-16.4,0-29.6,13.3-29.6,29.6l0,21H332.9z"/>
</svg>
